<svg version="1.2" xmlns="http://www.w3.org/2000/svg" viewBox="0 0 2311 383" width="2311" height="383">
	<title>logo-svg</title>
	<style>
		.s0 { fill: #5ebc67 } 
		.s1 { fill: #152232 } 
	</style>
	<g id="koffer">
		<path id="Layer" fill-rule="evenodd" class="s0" d="m418.9 208v110.5c0 35.8-29.2 64.5-64.5 64.5h-289.9c-35.8 0-64.5-29.2-64.5-64.5v-110.5c0-35.8 29.2-64.5 64.5-64.5h26.3v-25.4c0-64.9 52.7-118.1 118.2-118.1 65.4 0 118.1 53.2 118.6 118.1v25.4h26.3c35.3 0 64 28.7 65 64.5zm-309.2-64.5h198.6v-25.4c0-54.6-44.7-99.3-99.3-99.3-54.6 0-99.3 44.7-99.3 99.3zm289.4 149.2q-0.2-0.1-0.5-0.1v0.1zm-0.4-0.1v-84.6c0-25.4-20.7-45.7-45.7-45.7h-26.3v32c0 5.2-4.3 9.4-9.5 9.4-5.1 0-9.4-4.2-9.4-9.4v-32h-198.6v32c0 5.2-4.2 9.4-9.4 9.4-5.2 0-9.4-4.2-9.4-9.4v-32h-26.4c-25.4 0-45.6 20.7-45.6 45.7v84.7c3.3-0.5 7-1 10.3-1 34.9 0 63.6 28.2 63.6 63.5 0 2.9 0 6.1-0.5 9h233.9c0-2.9-0.4-6.1-0.4-9 0-34.8 28.2-63.5 63.5-63.5 3.6 0 6.7 0.4 9.9 0.9zm0.4 25.9v-6.6c-3.3-0.9-7-1.4-10.3-1.4-24.5 0-44.7 19.8-44.7 44.7 0 2.9 0.4 6.1 0.9 9h9c24.9 0 45.1-20.3 45.1-45.7zm-335.1 45.2h9c0.5-2.8 0.9-6.1 0.9-8.9 0-24.5-19.7-44.7-44.7-44.7-3.8 0-7 0.4-10.3 1.4v7c0 25.4 20.2 45.7 45.1 45.2z"/>
		<path id="Layer" fill-rule="evenodd" class="s0" d="m365.2 254.5c0 5.2-4.2 9.5-9.4 9.5h-40.5v18.8c0 5.2-4.2 9.4-9.4 9.4-5.2 0-9.4-4.2-9.4-9.4v-18.8h-233.9c-5.2 0-9.4-4.3-9.4-9.5 0-5.1 4.2-9.4 9.4-9.4h72.5l30.1-55c3.3-6.1 8.5-10.4 15.1-12.2 6.5-1.9 13.1-1 19.3 2.3l20.7 11.3 6.6-9.9c3.7-5.6 9.8-9.4 16.4-10.3 6.6-1.4 13.2 0.4 18.9 4.2l23 16.5c5.7 3.7 9.4 9.9 10.4 16.4 1.4 6.6-0.5 13.2-4.3 18.9l-12.7 17.8h76.7c5.2 0 9.9 4.3 9.9 9.4zm-122.8-62.5l-8 11.3c4.2 7.5 4.2 16.4 0 24.4l-9.4 17h30.1l20.7-28.7c0.9-1.4 1.4-2.9 0.9-4.7 0-1.9-0.9-3.3-2.3-4.3l-23.1-16.4c-1.4-1-2.8-1.5-4.7-1-1.9 0.5-3.3 1.4-4.2 2.4zm-86.1 53.1h47l14.1-26.3c1.5-2.8 1-6.1-1.4-8 0-0.5-0.4-0.9-0.9-0.9l-25-13.7c-1.4-0.9-3.3-0.9-4.7-0.5-1.4 0.5-2.8 1.9-3.7 3.3z"/>
	</g>
	<g id="Ordner 2">
		<g id="Ordner 1">
			<path id="linie" class="s0" d="m447.9 320.5h1860.4v24.5h-1860.4z"/>
			<path id="linie copy" class="s0" d="m447.9 358.5h1860.4v24.5h-1860.4z"/>
		</g>
		<path id="text" fill-rule="evenodd" class="s1" d="m593.9 246.4l12.6 27.4q-13.7 8.2-26.9 12.6-13.2 4.5-30.3 4.5-28.5 0-45.4-18-16.9-18-16.9-51.4v-80.9h-39v-29.3h39v-48.6h36.4v48.6h57.9v29.3h-57.9v81.3q0 18.9 8.5 27.8 8.5 8.9 23 8.9 10.4 0 19.7-3.2 9.3-3.1 19.3-9zm182.9-139.5h15.6v74.2h-32.3v-38.2q-14.4 0-31.5 10.7-17.1 10.8-35.3 30.4v72.8h39.7v29.3h-115.4v-29.3h39.4v-116.2h-39.4v-29.3h75.7v43.8q19.7-22.6 41-35.5 21.4-12.7 42.5-12.7zm240.5 148.4l7.4 26.3q-12.2 7.4-28.5 7.4-13.8 0-23.3-8-9.4-7.9-13.1-22.8-37.1 33.1-73.5 33.1-25.6 0-43.4-14.5-17.8-14.5-17.8-40.4 0-17.9 10-31.1 10-13.1 26.9-20 16.9-6.8 36.6-6.8 16.7 0 30.8 3.1 14.1 3.2 28.9 9.1v-16.3q0-18.9-12.6-27.8-12.6-8.9-33-8.9-29 0-69.8 15.9l-7.4-28.2q43.8-18.5 81.6-18.5 36 0 55.8 17.6 19.9 17.6 19.9 51.4v64.2q0 18.1 13 18.1 5.6 0 11.5-2.9zm-156.2-20.8q0 12.6 10 19.4 10 6.9 24.5 6.9 12.6 0 28.9-6.6 16.4-6.7 33.8-19.7v-19.7q-25.2-8.9-53.4-9.6-18.2 0-31.1 7.6-12.7 7.6-12.7 21.7zm393.6-123.2v29.3h-28.9l-77.6 150.3h-18.5l-79.1-150.3h-26.7v-29.3h94.6v26.7h-29.3l53.5 107.6 52.3-107.6h-30.1v-26.7zm173 125.1l15.6 23.7q-35.7 31.2-81.3 31.2-24.9 0-47.1-10.4-22.3-10.4-36-30.4-13.8-20.1-13.8-47.5 0-29.3 14.1-51.2 14.1-21.9 36.8-33.6 22.6-11.7 47.5-11.7 21.9 0 39.2 7.1 17.2 7 27 19.6 9.9 12.6 9.9 29 0 24.4-21.1 37.9-20.9 13.6-50.2 13.6-18.9 0-35.3-3.9-16.3-3.9-33-11.3v3.4q0 17.4 8.4 30.7 8.3 13.4 22.4 20.4 14.1 7.1 30.8 7.1 37.9 0 66.1-23.7zm-61.6-100.9q-20.1 0-37.3 11.5-17.3 11.5-24.7 31.1 28.2 10 56.4 10 18.6 0 30.7-6.9 12-6.8 12-19 0-11.9-10.4-19.3-10.4-7.4-26.7-7.4zm171.4 121.3h40.5v29.3h-115.8v-29.3h39v-195.9h-39v-29.3h75.3zm238.9 0h40.5v29.3h-115.8v-29.3h39v-195.9h-39v-29.3h75.3zm109.9-185.1q-11.9 0-20-6.3-8.2-6.3-8.2-16 0-10 8.2-16.5 8.1-6.5 20-6.5 12.6 0 20.8 6.5 8.1 6.5 8.1 16.5 0 9.7-8.1 16-8.2 6.3-20.8 6.3zm22.3 185.1h39.7v29.3h-115.4v-29.3h39.3v-116.1h-39.3v-29.3h75.7zm148-73.8q34.2 9.2 52.5 23.1 18.4 13.9 18.4 37.3 0 21.5-18.2 34.7-18.2 13.2-44.9 13.2-18.5 0-36.6-6.6-17.9-6.4-32-17.9v19.7h-28.2v-56.8l15.9-1.5q14.1 16 35.4 27.2 21.4 11.4 41.8 11.4 13.7 0 21.5-5.2 7.8-5.2 7.8-14.8 0-11.2-12.2-18.4-12.3-7.2-40.1-14.7-33.4-8.9-51.4-22.4-18-13.5-18-35.4 0-13.8 7.6-25.1 7.6-11.3 21.5-17.8 14-6.5 32.1-6.5 17.9 0 34 6 16.1 5.9 28 16.7v-17.8h27.9v56.3l-16.4 1.9q-10.4-17.4-28.4-28-18-10.6-35.8-10.6-14.5 0-23.7 5.7-9.3 5.8-9.3 15.1 0 10 12.2 16.8 12.3 6.9 38.6 14.4zm239.7 63.4l12.7 27.4q-13.7 8.2-27 12.7-13.1 4.4-30.2 4.4-28.6 0-45.5-18-16.8-18-16.8-51.4v-80.8h-39v-29.3h39v-48.6h36.3v48.6h58v29.3h-58v81.2q0 18.9 8.5 27.8 8.6 8.9 23 8.9 10.4 0 19.7-3.2 9.3-3.1 19.3-9z"/>
	</g>
</svg>